<svg width="528" height="529" viewBox="0 0 528 529" fill="none" xmlns="http://www.w3.org/2000/svg">
<path d="M374.038 147.301C372.19 147.829 312.582 190.409 307.65 194.15C302.719 197.891 293.014 211.104 294.276 212.311C296.23 214.18 312.936 208.132 315.172 206.835C317.408 205.539 379.704 161.552 382.756 159.442C385.808 157.333 375.9 146.775 374.038 147.301Z" fill="#FF7801"/>
<path d="M327.216 231.881L327.442 231.905C338.371 233.577 349.09 237.511 356.586 242.157L357.302 242.608C358.131 243.142 358.548 244.231 358.278 245.312L358.214 245.529C330.053 329.153 295.363 347.66 278.257 352.61L277.456 352.836C263.331 356.705 243.898 357.243 224.797 356.369C208.121 355.606 191.83 353.776 179.781 352.224L174.887 351.58C173.279 351.364 171.708 352.104 171.145 353.509C170.853 354.237 170.868 355.135 171.404 355.9C171.915 356.632 172.723 356.99 173.521 357.121V357.122C184.52 358.932 195.59 360.31 206.686 361.333L208.906 361.533C210.309 361.656 211.378 362.789 211.447 364.15V364.426C210.034 393.094 208.572 427.416 208.047 444.237L207.956 447.361C207.923 448.553 207.169 449.517 206.126 449.817L205.914 449.868C189.706 453.005 160.221 453.607 130.818 451.417C116.138 450.324 101.528 448.538 88.6606 446.041C76.1692 443.617 65.4201 440.541 57.851 436.832L57.1284 436.471C56.2969 436.047 55.7854 435.139 55.8442 434.111L55.8637 433.904C62.532 382.705 73.7642 332.206 89.4252 283.01L90.9545 278.253V278.252C91.4064 276.858 91.098 275.202 89.7983 274.406C89.1126 273.986 88.244 273.907 87.4506 274.294C86.8011 274.611 86.3522 275.162 86.0561 275.764L85.9379 276.025C72.0342 309.655 62.7997 347.296 56.0248 383.368L55.3774 386.854C54.9781 389.023 52.6074 389.671 51.2485 388.36L51.1205 388.227C42.8453 379.017 32.4201 364.9 24.8618 350.572C21.083 343.409 18.0467 336.241 16.3422 329.643C14.6852 323.229 14.3255 317.499 15.6235 312.867L15.7543 312.423V312.422C17.5006 306.746 21.6824 300.221 27.977 293.458C34.2536 286.714 42.551 279.818 52.3969 273.388C71.8251 260.699 97.1744 249.895 124.688 245.63C126.257 248.085 129.105 249.879 132.398 251.204C136.246 252.752 141.051 253.796 146.136 254.435C156.139 255.692 167.551 255.414 175.624 254.063C194.189 259.917 209.408 267.989 223.472 274.537C237.326 280.987 250.128 285.99 263.553 285.397L264.193 285.365C266.021 285.26 268.159 284.508 270.42 283.401C272.715 282.278 275.281 280.717 278.002 278.848C283.446 275.108 289.625 270.06 295.676 264.613C307.359 254.096 318.789 241.887 323.606 234.481L324.051 233.78C324.833 232.517 326.076 231.812 327.216 231.881Z" fill="#FF7801" stroke="#4D2114" stroke-width="3.3"/>
<path d="M249.89 97.7533C264.274 107.825 277.175 119.864 288.215 133.52C289.965 135.598 291.911 133.964 293.231 132.266C310.776 109.594 320.159 96.2881 343.612 76.826C345.46 75.3001 343.369 73.0667 341.397 74.45C325.322 85.6806 300.607 109.348 290.055 126.065C278.781 113.851 265.904 103.222 251.775 94.4691C249.069 92.8165 247.263 96.0056 249.89 97.7533Z" fill="#FF7801"/>
<path d="M265.687 95.2664C270.241 95.7944 303.299 94.3979 308.455 94.3055C311.027 94.258 311.217 90.1501 308.603 90.2504C303.4 90.4484 270.059 91.2193 265.386 92.0483C263.472 92.3862 263.974 95.0631 265.687 95.2664Z" fill="#FF7801"/>
<path d="M254.778 195.803C252.484 194.768 250.599 197.891 252.69 199.188C264.387 206.478 275.56 214.578 286.126 223.428C289.315 226.092 293.238 221.018 290.086 218.33C279.431 209.203 267.545 201.62 254.778 195.803Z" fill="#FF7801"/>
<path d="M322.759 142.557C322.872 132.712 321.911 122.16 321.859 112.255C321.859 109.747 318.369 110.167 318.39 112.672C318.476 123.163 318.564 133.647 318.654 144.122C310.776 144.122 275.231 145.086 267.121 146.609C266.266 137.604 265.856 128.528 264.531 119.57C264.464 119.216 264.268 118.898 263.981 118.679C263.694 118.46 263.336 118.355 262.976 118.383C262.616 118.412 262.279 118.572 262.03 118.833C261.782 119.095 261.638 119.439 261.627 119.8C262.047 128.597 262.419 137.583 263.092 146.38C263.451 151.06 263.467 150.749 268.085 150.413C284.072 149.249 300.351 148.301 316.378 148.156C321.003 148.111 322.69 148.428 322.759 142.557Z" fill="#FF7801"/>
<path d="M302.884 178.521C294.043 178.635 284.404 178.772 275.613 179.773C266.439 180.829 267.086 181.6 267.735 189.868C267.885 192.042 268.164 194.206 268.57 196.347C268.618 196.748 268.812 197.117 269.114 197.386C269.416 197.654 269.806 197.802 270.21 197.802C270.614 197.802 271.004 197.654 271.307 197.386C271.609 197.117 271.803 196.748 271.851 196.347C271.851 194.842 271.12 184.623 271.323 184.372C271.526 184.121 299.286 182.173 302.251 181.969C304.806 181.792 305.432 178.487 302.884 178.521Z" fill="#FF7801"/>
<path d="M273.292 218.956C273.203 218.555 272.971 218.201 272.64 217.959C272.309 217.716 271.902 217.603 271.493 217.638C271.084 217.674 270.703 217.857 270.419 218.154C270.135 218.45 269.968 218.839 269.95 219.249C270.067 224.722 270.464 230.185 271.141 235.617C271.102 236.131 271.269 236.639 271.605 237.03C271.94 237.421 272.417 237.663 272.931 237.702C273.195 237.724 293.42 237.204 308.212 235.804C311.995 235.448 309.695 232.061 307.48 232.232C297.031 233.024 285.331 233.444 274.839 233.756C274.422 228.674 274.066 223.827 273.292 218.956Z" fill="#FF7801"/>
<path d="M183.519 170.913C178.422 170.602 175.391 176.89 178.129 177.455C179.549 177.748 180.008 174.195 183.29 174.216C183.728 174.246 184.16 174.102 184.491 173.813C184.822 173.525 185.025 173.117 185.056 172.679C185.086 172.241 184.942 171.809 184.653 171.478C184.365 171.147 183.957 170.944 183.519 170.913Z" fill="#4D2114"/>
<path d="M190.645 165.272C189.885 163.74 188.533 164.987 188.89 166.441C191.131 175.393 193.673 180.38 195.577 190.328C196.601 195.677 191.714 192.416 191.564 196.598C191.468 199.696 191.154 202.784 190.624 205.838C188.505 205.466 186.567 204.409 185.107 202.828C184.167 201.595 182.538 202.704 183.311 204.354C184.005 205.637 184.998 206.735 186.206 207.553C187.413 208.371 188.8 208.887 190.249 209.056C188.557 222.52 181.442 223.291 170.061 220.936C167.97 220.506 165.877 219.761 163.583 219.452C162.474 219.305 159.623 221.543 167.073 223.632C167.073 227.248 167.865 245.702 168.892 249.086C169.327 250.507 171.569 250.338 171.442 248.73C170.782 240.369 170.521 232.555 170.386 224.384C193.09 229.025 192.726 215.128 194.542 197.324C199.223 196.653 199.434 192.78 198.721 189.069C197.124 180.806 194.407 172.8 190.645 165.272Z" fill="#4D2114"/>
<path d="M126.388 126.968C120.316 105.003 96.7961 82.2672 65.1399 98.7777C33.4836 115.288 37.6839 159.717 54.7119 178.522C65.4091 190.33 75.6101 204.267 74.0419 215.091C72.4738 225.915 89.1348 216.511 80.4571 181.048C73.5219 152.71 96.1704 129.14 113.89 140.236C117.139 135.032 121.387 130.522 126.388 126.968Z" fill="#4D2114"/>
<path d="M157.983 179.253C162.711 182.059 192.1 158.349 190.291 152.9C175.771 109.19 121.773 120.526 113.116 151.791C103.403 186.874 132.319 214.391 134.159 214.151C136.834 213.8 145.247 208.404 148.371 197.891C149.746 198.696 151.311 199.121 152.905 199.121C154.499 199.121 156.064 198.696 157.439 197.891C159.234 196.869 157.938 194.831 156.04 195.515C151.415 197.165 146.428 193.424 146.929 185.444C146.941 184.158 147.292 182.897 147.947 181.791C148.602 180.684 149.538 179.77 150.66 179.142C151.782 178.513 153.051 178.193 154.336 178.212C155.622 178.232 156.88 178.591 157.983 179.253Z" fill="#4D2114"/>
<path d="M132.676 218.224C130.962 226.134 130.044 234.195 129.938 242.288C129.971 242.623 130.122 242.936 130.364 243.17C130.606 243.405 130.923 243.546 131.259 243.568C131.596 243.591 131.929 243.493 132.2 243.293C132.471 243.093 132.662 242.803 132.739 242.475C134.339 234.774 134.587 226.469 136 218.465C136.335 216.553 133.035 216.366 132.676 218.224Z" fill="#4D2114"/>
<path d="M186.648 181.568C185.444 177.381 181.479 177.199 183.034 183.094C184.449 188.432 187.918 185.972 186.648 181.568Z" fill="#4D2114"/>
<path d="M315.715 181.006C316.975 179.739 326.275 179.015 326.98 178.791C328.583 178.263 328.213 175.905 326.875 175.385C324.179 174.329 316.552 175.845 314.002 177.233C311.452 178.622 311.024 183.276 308.756 188.163C307.592 190.671 306.032 192.978 305.015 195.539C304.522 196.788 306.029 197.651 307.106 196.793C312.246 192.743 315.652 181.069 315.715 181.006Z" fill="#4D2114"/>
<path d="M309.466 202.886C309.115 202.869 308.769 202.976 308.489 203.19C308.21 203.404 308.016 203.71 307.941 204.053C307.866 204.397 307.915 204.756 308.08 205.067C308.244 205.377 308.514 205.62 308.84 205.75C327.027 212.414 325.911 224.539 328.442 227.42C328.989 228.043 332.566 229.373 331.682 224.252C329.897 213.919 320.018 203.718 309.466 202.886Z" fill="#4D2114"/>
<path d="M346.706 190.681C353.776 207.915 354.124 212.168 353.665 230.809C353.612 232.9 356.746 233.74 357.3 231.601C360.513 219.225 356.751 199.393 349.338 188.949C348.245 187.408 346.054 189.095 346.706 190.681Z" fill="#4D2114"/>
<path d="M335.129 196.178C334.715 200.861 331.758 200.824 328.859 201.696C325.237 202.783 327.291 203.784 328.859 204.161C330.065 204.502 331.338 204.533 332.559 204.252C333.78 203.972 334.912 203.388 335.848 202.556C336.785 201.723 337.497 200.668 337.919 199.488C338.341 198.308 338.459 197.041 338.263 195.803C337.825 193.739 335.306 194.174 335.129 196.178Z" fill="#4D2114"/>
<path d="M464.838 131.02C468.851 130.798 467.679 124.653 463.708 124.877C435.019 126.503 405.84 124.771 378.03 126.508C374.862 126.704 375.419 131.501 378.294 131.836C394.876 133.768 448.644 131.936 464.838 131.02Z" fill="#4D2114"/>
<path d="M511.48 92.6952C477.297 91.5653 405.22 91.9032 373.455 95.2454C370.863 95.5094 370.153 100.28 373.268 100.261C409.629 100.034 469.572 97.5977 512.066 98.9414C516.121 99.0734 515.453 92.8272 511.48 92.6952Z" fill="#4D2114"/>
<path d="M507.239 180.13C465.839 183.562 416.22 179.287 378.492 183.849C375.503 184.211 376.253 189.298 379.326 189.129C413.01 187.115 462.914 188.562 507.406 186.455C511.418 186.252 511.313 179.792 507.239 180.13Z" fill="#4D2114"/>
<path d="M459.571 209.47C440.218 208.314 397.384 208.441 381.163 209.238C378.133 209.388 377.694 214.499 380.849 214.692C405.008 216.176 431.379 216.099 459.212 215.529C462.497 215.463 463.186 209.684 459.571 209.47Z" fill="#4D2114"/>
</svg>
