<svg width="62" height="122" viewBox="0 0 62 122" fill="none" xmlns="http://www.w3.org/2000/svg">
<path opacity="0.15" d="M7.90558 116.693C7.90558 117.317 8.60124 117.936 9.95284 118.513C11.3044 119.09 13.2855 119.615 15.7829 120.057C18.2804 120.499 21.2453 120.849 24.5083 121.088C27.7714 121.327 31.2687 121.45 34.8006 121.45C38.3325 121.45 41.8298 121.327 45.0928 121.088C48.3559 120.849 51.3208 120.499 53.8182 120.057C56.3156 119.615 58.2967 119.09 59.6483 118.513C60.9999 117.936 61.6956 117.317 61.6956 116.693C61.6956 116.068 60.9999 115.449 59.6483 114.872C58.2967 114.295 56.3156 113.77 53.8182 113.329C51.3208 112.887 48.3559 112.536 45.0928 112.297C41.8298 112.058 38.3325 111.935 34.8006 111.935C31.2687 111.935 27.7714 112.058 24.5083 112.297C21.2453 112.536 18.2804 112.887 15.7829 113.329C13.2855 113.77 11.3044 114.295 9.95284 114.872C8.60124 115.449 7.90558 116.068 7.90558 116.693Z" fill="#45413C"/>
<path d="M52.646 84.3343L38.0669 90.4568C37.6768 90.6206 37.2377 90.6228 36.8461 90.4628C36.4545 90.3028 36.1425 89.9939 35.9787 89.6038L28.6317 72.1089L46.1266 64.7619L53.4949 82.3075C53.6402 82.6898 53.6331 83.1133 53.4751 83.4905C53.3171 83.8677 53.0203 84.1697 52.646 84.3343Z" fill="#C0DCEB"/>
<path d="M28.6411 72.1151L35.9836 89.6326L28.6411 72.1151Z" fill="#E8F4FA"/>
<path d="M53.5006 82.2903L46.1306 64.7728L40.6306 67.0553L48.0831 84.7653C48.2133 85.0943 48.2116 85.4609 48.0784 85.7887C47.9452 86.1165 47.6908 86.3803 47.3681 86.5253L52.5381 84.3528C52.7379 84.2822 52.9216 84.1725 53.0785 84.0301C53.2354 83.8877 53.3624 83.7155 53.452 83.5235C53.5416 83.3315 53.5921 83.1235 53.6004 82.9118C53.6088 82.7001 53.5748 82.4888 53.5006 82.2903Z" fill="#E8F4FA"/>
<path d="M52.646 84.3343L38.0669 90.4568C37.6768 90.6206 37.2377 90.6228 36.8461 90.4628C36.4545 90.3028 36.1425 89.9939 35.9787 89.6038L28.6317 72.1089L46.1266 64.7619L53.4949 82.3075C53.6402 82.6898 53.6331 83.1133 53.4751 83.4905C53.3171 83.8677 53.0203 84.1697 52.646 84.3343V84.3343Z" stroke="#45413C" stroke-width="2.2" stroke-linecap="round" stroke-linejoin="round"/>
<path d="M60.156 102.998C58.292 106.562 57.6174 110.628 58.231 114.603L55.7285 115.648C53.4692 112.642 50.3537 110.389 46.791 109.185C45.9765 108.994 45.2163 108.62 44.5682 108.091C43.9201 107.562 43.4012 106.893 43.051 106.133C42.4352 104.658 41.9565 103.13 41.621 101.568L39.2285 90.0454L51.741 84.7928L58.3135 94.5554C59.1647 95.8642 59.9008 97.2443 60.5135 98.6804C60.7754 99.382 60.8791 100.133 60.8173 100.879C60.7555 101.625 60.5297 102.349 60.156 102.998Z" fill="#E8F4FA"/>
<path d="M60.3756 98.6804C59.7629 97.2443 59.0268 95.8642 58.1756 94.5554L51.6031 84.7928L46.5706 86.9103L53.0056 96.5079C53.8871 97.8032 54.6335 99.1854 55.2331 100.633C55.5042 101.328 55.6224 102.074 55.5797 102.819C55.537 103.564 55.3344 104.291 54.9856 104.95C53.7741 107.341 53.0541 109.95 52.8681 112.623C53.899 113.521 54.8219 114.536 55.6181 115.648L58.1206 114.603C57.507 110.628 58.1816 106.562 60.0456 102.998C60.4148 102.347 60.6358 101.622 60.6929 100.876C60.7499 100.13 60.6416 99.38 60.3756 98.6804Z" fill="white"/>
<path d="M60.156 102.998C58.292 106.562 57.6174 110.628 58.231 114.603L55.7285 115.648C53.4692 112.642 50.3537 110.389 46.791 109.185C45.9765 108.994 45.2163 108.62 44.5682 108.091C43.9201 107.562 43.4012 106.893 43.051 106.133C42.4352 104.658 41.9565 103.13 41.621 101.568L39.2285 90.0454L51.741 84.7928L58.3135 94.5554C59.1647 95.8642 59.9008 97.2443 60.5135 98.6804C60.7754 99.382 60.8791 100.133 60.8173 100.879C60.7555 101.625 60.5297 102.349 60.156 102.998V102.998Z" stroke="#45413C" stroke-width="2.2" stroke-linecap="round" stroke-linejoin="round"/>
<path d="M56.9927 115.125L50.8602 100.55" stroke="#45413C" stroke-width="2.2" stroke-linecap="round" stroke-linejoin="round"/>
<path d="M47.9452 101.76C47.7066 101.183 47.6441 100.548 47.7658 99.9358C47.8874 99.3233 48.1877 98.7605 48.6287 98.3184C49.0697 97.8762 49.6318 97.5746 50.244 97.4514C50.8562 97.3282 51.4912 97.3891 52.0689 97.6263C52.6466 97.8635 53.1411 98.2664 53.4902 98.7843C53.8392 99.3021 54.0271 99.9117 54.0302 100.536C54.0332 101.161 53.8514 101.772 53.5075 102.293C53.1636 102.815 52.673 103.222 52.0977 103.465C51.7133 103.628 51.3006 103.712 50.8833 103.714C50.466 103.716 50.0525 103.636 49.6665 103.477C49.2805 103.319 48.9297 103.085 48.6343 102.791C48.3388 102.496 48.1047 102.146 47.9452 101.76Z" fill="#45413C"/>
<path d="M47.8356 60.6202L26.3856 9.58016C25.741 8.04895 24.8011 6.6597 23.6195 5.49173C22.438 4.32376 21.038 3.39995 19.4995 2.77304C17.9609 2.14612 16.3139 1.82839 14.6526 1.83798C12.9913 1.84757 11.3481 2.18429 9.81686 2.82891C8.28564 3.47354 6.89639 4.41345 5.72842 5.59497C4.56045 6.7765 3.63664 8.17651 3.00973 9.71506C2.38282 11.2536 2.06509 12.9006 2.07467 14.5619C2.08426 16.2233 2.42098 17.8664 3.06561 19.3977L24.4881 70.4377C24.6502 70.8208 24.8862 71.1683 25.1828 71.4601C25.4793 71.7518 25.8305 71.9822 26.2163 72.1381C26.602 72.2939 27.0147 72.3721 27.4307 72.3682C27.8467 72.3642 28.2579 72.2783 28.6406 72.1152L46.1306 64.7727C46.9046 64.4448 47.5178 63.8246 47.8371 63.0471C48.1564 62.2695 48.1558 61.3973 47.8356 60.6202Z" fill="#87898C"/>
<path d="M3.06604 19.37L24.4885 70.4375L3.06604 19.37Z" fill="#BDBEC0"/>
<path d="M47.836 60.6202L26.386 9.58023C25.0866 6.5022 22.6222 4.06324 19.5308 2.79578C16.4395 1.52833 12.9722 1.53532 9.88603 2.81523C9.38284 3.04804 8.89591 3.31448 8.42853 3.61273C10.5657 3.13859 12.8015 3.42938 14.7463 4.43445C16.6911 5.43951 18.2216 7.09511 19.071 9.11273L42.116 64.1127C42.3528 64.6853 42.3525 65.3284 42.1153 65.9008C41.8781 66.4732 41.4234 66.928 40.851 67.1652L32.4085 70.7402L46.1585 64.9377C46.5598 64.7738 46.9235 64.5299 47.2274 64.2208C47.5313 63.9116 47.7689 63.5438 47.9259 63.1398C48.0829 62.7357 48.1559 62.3039 48.1404 61.8708C48.125 61.4376 48.0214 61.0121 47.836 60.6202Z" fill="#BDBEC0"/>
<path d="M47.8356 60.6202L26.3856 9.58016C25.741 8.04895 24.8011 6.6597 23.6195 5.49173C22.438 4.32376 21.038 3.39995 19.4995 2.77304C17.9609 2.14612 16.3139 1.82839 14.6526 1.83798C12.9913 1.84757 11.3481 2.18429 9.81686 2.82891C8.28564 3.47354 6.89639 4.41345 5.72842 5.59497C4.56045 6.7765 3.63664 8.17651 3.00973 9.71506C2.38282 11.2536 2.06509 12.9006 2.07467 14.5619C2.08426 16.2233 2.42098 17.8664 3.06561 19.3977L24.4881 70.4377C24.6502 70.8208 24.8862 71.1683 25.1828 71.4601C25.4793 71.7518 25.8305 71.9822 26.2163 72.1381C26.602 72.2939 27.0147 72.3721 27.4307 72.3682C27.8467 72.3642 28.2579 72.2783 28.6406 72.1152L46.1306 64.7727C46.9046 64.4448 47.5178 63.8246 47.8371 63.0471C48.1564 62.2695 48.1558 61.3973 47.8356 60.6202V60.6202Z" stroke="#45413C" stroke-width="2.2" stroke-linecap="round" stroke-linejoin="round"/>
<path d="M53.1156 77.2853L32.6831 85.8653" stroke="#45413C" stroke-width="2.2" stroke-linecap="round" stroke-linejoin="round"/>
<path d="M14.2581 21.5427C14.0847 21.1578 13.9902 20.742 13.98 20.32C13.9699 19.898 14.0443 19.4782 14.199 19.0854C14.3536 18.6926 14.5854 18.3347 14.8805 18.0329C15.1756 17.731 15.5282 17.4914 15.9175 17.328C16.3067 17.1645 16.7247 17.0807 17.1469 17.0814C17.569 17.0821 17.9868 17.1673 18.3755 17.332C18.7642 17.4967 19.116 17.7376 19.4101 18.0404C19.7042 18.3432 19.9348 18.7019 20.0881 19.0952L31.0881 45.3577C31.3877 46.126 31.3752 46.981 31.0535 47.7403C30.7318 48.4996 30.1262 49.1032 29.3658 49.4224C28.6054 49.7416 27.7504 49.7512 26.9831 49.4491C26.2158 49.147 25.5968 48.5571 25.2581 47.8052L14.2581 21.5427Z" fill="#DAEDF7" stroke="#45413C" stroke-width="2.2" stroke-linecap="round" stroke-linejoin="round"/>
</svg>
